<svg width="262" height="36" viewBox="0 0 262 36" fill="none" xmlns="http://www.w3.org/2000/svg">
<g filter="url(#filter0_b_5477_39923)">
<path d="M18.6035 0H243.396L262 18L243.396 36H18.6035L0 18L18.6035 0Z" fill="#1E1E1E" fill-opacity="0.52"/>
<path d="M1.43812 18L19.0081 1H242.992L260.562 18L242.992 35H19.0081L1.43812 18Z" stroke="#F0F0F0" stroke-width="2"/>
</g>
<path d="M111.054 11.872V22.528C111.054 23.968 110.398 24.688 109.086 24.688C108.393 24.688 107.715 24.4587 107.054 24L107.566 23.2C107.971 23.4347 108.361 23.552 108.734 23.552C109.299 23.552 109.582 23.1733 109.582 22.416V11.872H111.054ZM116.656 22.192C115.557 22.192 114.667 21.7813 113.984 20.96C113.397 20.256 113.104 19.3973 113.104 18.384C113.104 17.2107 113.461 16.2613 114.176 15.536C114.816 14.8747 115.637 14.544 116.64 14.544C117.792 14.544 118.699 14.9653 119.36 15.808C119.904 16.512 120.176 17.3707 120.176 18.384C120.176 19.5467 119.803 20.496 119.056 21.232C118.395 21.872 117.595 22.192 116.656 22.192ZM116.624 21.104C117.264 21.104 117.771 20.8587 118.144 20.368C118.528 19.8773 118.72 19.216 118.72 18.384C118.72 17.52 118.517 16.832 118.112 16.32C117.739 15.84 117.248 15.6 116.64 15.6C116.021 15.6 115.52 15.856 115.136 16.368C114.752 16.88 114.56 17.552 114.56 18.384C114.56 19.28 114.773 19.9733 115.2 20.464C115.573 20.8907 116.048 21.104 116.624 21.104ZM123.601 14.736V22H122.225V14.736H123.601ZM122.113 12.496C122.113 12.272 122.193 12.08 122.353 11.92C122.513 11.76 122.705 11.68 122.929 11.68C123.153 11.68 123.345 11.76 123.505 11.92C123.676 12.08 123.761 12.272 123.761 12.496C123.761 12.7307 123.681 12.928 123.521 13.088C123.361 13.248 123.164 13.328 122.929 13.328C122.695 13.328 122.497 13.248 122.337 13.088C122.188 12.928 122.113 12.7307 122.113 12.496ZM127.411 15.456H127.491C128.035 14.848 128.792 14.544 129.763 14.544C131.544 14.544 132.435 15.5893 132.435 17.68V22H131.059V17.76C131.059 16.4053 130.461 15.728 129.267 15.728C128.936 15.728 128.6 15.808 128.259 15.968C127.917 16.128 127.667 16.32 127.507 16.544V22H126.131V14.736H127.283L127.411 15.456ZM143.256 14.736H144.632V22H143.576L143.464 21.168H143.368C143.123 21.4667 142.787 21.712 142.36 21.904C141.944 22.096 141.533 22.192 141.128 22.192C139.432 22.192 138.584 21.1573 138.584 19.088V14.736H139.96V18.784C139.96 20.2667 140.493 21.008 141.56 21.008C141.869 21.008 142.189 20.928 142.52 20.768C142.851 20.608 143.096 20.416 143.256 20.192V14.736ZM151.083 16.048C150.549 15.7493 149.963 15.6 149.323 15.6C148.971 15.6 148.688 15.6853 148.475 15.856C148.261 16.016 148.155 16.2347 148.155 16.512C148.155 16.8213 148.251 17.0613 148.443 17.232C148.645 17.392 149.019 17.5467 149.563 17.696C150.384 17.9307 150.955 18.1813 151.275 18.448C151.712 18.8213 151.931 19.3493 151.931 20.032C151.931 20.6827 151.691 21.2053 151.211 21.6C150.741 21.9947 150.117 22.192 149.339 22.192C148.304 22.192 147.408 21.904 146.651 21.328L147.131 20.56C147.728 20.9333 148.395 21.12 149.131 21.12C150.112 21.12 150.603 20.7467 150.603 20C150.603 19.68 150.496 19.44 150.283 19.28C150.08 19.1093 149.685 18.9493 149.099 18.8C147.541 18.416 146.763 17.664 146.763 16.544C146.763 15.968 146.992 15.4933 147.451 15.12C147.92 14.736 148.507 14.544 149.211 14.544C150.107 14.544 150.891 14.7947 151.563 15.296L151.083 16.048Z" fill="#F0F0F0"/>
</svg>
