<svg width="83" height="17" viewBox="0 0 83 17" fill="none" xmlns="http://www.w3.org/2000/svg">
<path d="M9.04 17H4.84V5.24H9.04V17ZM4 3.56L0.688 0.199999H13.24L18.28 5.24V17H14.08V6.08L11.56 3.56H4ZM18.28 3.56L14.92 0.199999H22.48L27.52 5.24V17H23.32V6.08L20.8 3.56H18.28ZM32.5713 3.56H27.5312L24.2432 0.199999H34.2513L51.0513 17H46.0113L32.5713 3.56ZM28.3713 5.24V17H32.5713V12.8H40.1313L36.7713 9.44H32.5713V5.24H28.3713ZM51.0634 17H46.8634V5.24H51.0634V17ZM46.0234 3.56L42.7594 0.199999H55.2634L60.3034 5.24L57.7834 7.76H52.7434L55.2634 5.24L53.5834 3.56H46.0234ZM78.7769 3.56H61.1369L64.4969 0.199999H82.1369L78.7769 3.56ZM64.4969 13.64H77.9369L74.5769 17H61.1369L64.4969 13.64ZM61.1369 5.24L66.1769 10.28H71.2169L72.8969 11.96H77.9369L72.8969 6.92H67.8569L66.1769 5.24H61.1369Z" fill="#F0F0F0"/>
</svg>
