<svg width="158" height="17" viewBox="0 0 158 17" fill="none" xmlns="http://www.w3.org/2000/svg">
<path d="M0.84 10.28L5.88 5.24H10.92L5.88 10.28L9.24 13.64H19.32L22.68 17H7.56L0.84 10.28ZM23.52 3.56H7.56L10.92 0.199999H26.88L23.52 3.56ZM38.6475 17V0.199999H34.4475V17H38.6475ZM23.5275 0.199999H27.7275V6.92H32.7675V10.28H27.7275V17H23.5275V0.199999ZM43.6884 3.56H38.6484L35.3604 0.199999H45.3684L62.1684 17H57.1284L43.6884 3.56ZM39.4884 5.24V17H43.6884V12.8H51.2484L47.8884 9.44H43.6884V5.24H39.4884ZM62.1806 17H57.9806V5.24H62.1806V17ZM57.1406 3.56L53.9006 0.199999H66.3806L71.4206 5.24L68.9006 7.76H63.8606L66.3806 5.24L64.7006 3.56H57.1406ZM63.8606 9.44V12.8H67.2206L71.4206 17H76.4606L68.9006 9.44H63.8606ZM76.4541 3.56H71.4141L68.1261 0.199999H78.1341L94.9341 17H89.8941L76.4541 3.56ZM72.2541 5.24V17H76.4541V12.8H84.0141L80.6541 9.44H76.4541V5.24H72.2541ZM89.9025 10.28L94.9425 5.24H99.9825L94.9425 10.28L98.3025 13.64H108.383L111.743 17H96.6225L89.9025 10.28ZM112.583 3.56H96.6225L99.9825 0.199999H115.943L112.583 3.56ZM116.791 17H112.591V5.24H116.791V17ZM122.671 3.56H106.711L103.447 0.199999H126.031L122.671 3.56ZM138.628 3.56L141.988 0.199999H118.588L121.828 3.56H138.628ZM122.668 5.24H126.868V6.08H135.268L131.908 9.44H126.868V13.64H134.428L137.788 17H122.668V5.24ZM142.829 17H138.629V5.24H142.829V17ZM137.789 3.56L134.549 0.199999H147.029L152.069 5.24L149.549 7.76H144.509L147.029 5.24L145.349 3.56H137.789ZM144.509 9.44V12.8H147.869L152.069 17H157.109L149.549 9.44H144.509Z" fill="#F0F0F0"/>
</svg>
