<svg width="71" height="8" viewBox="0 0 71 8" fill="none" xmlns="http://www.w3.org/2000/svg">
<path d="M2.528 0.272H12.608C12.5867 0.368 12.5333 0.528 12.448 0.752C12.3627 0.976 12.272 1.2 12.176 1.424C12.0907 1.648 12.0053 1.84533 11.92 2.016C11.8453 2.18667 11.8027 2.272 11.792 2.272H4.048L3.824 3.152H11.232C11.2107 3.248 11.1573 3.408 11.072 3.632C10.9867 3.84533 10.896 4.06933 10.8 4.304C10.704 4.528 10.6187 4.72533 10.544 4.896C10.4693 5.06667 10.4267 5.152 10.416 5.152H3.28L2.528 8H0.48L2.528 0.272ZM13.5749 0.272H21.7829C22.1562 0.272 22.4442 0.346666 22.6469 0.496C22.8495 0.645333 22.9882 0.837333 23.0629 1.072C23.1375 1.296 23.1642 1.552 23.1429 1.84C23.1215 2.128 23.0735 2.416 22.9989 2.704L22.7749 3.504C22.7322 3.65333 22.6415 3.824 22.5029 4.016C22.3642 4.208 22.1989 4.38933 22.0069 4.56C21.8149 4.72 21.6015 4.85867 21.3669 4.976C21.1429 5.09333 20.9242 5.152 20.7109 5.152H19.5589L21.5749 8H18.9349L16.9669 5.152H14.3269L13.5749 8H11.5269L13.5749 0.272ZM15.0949 2.272L14.8709 3.152H20.6309L20.9029 2.96L21.0629 2.384L20.8869 2.272H15.0949ZM24.5905 0.272H26.6385L24.5905 8H22.5425L24.5905 0.272ZM27.6061 0.272H37.6861C37.6648 0.368 37.6115 0.528 37.5261 0.752C37.4408 0.976 37.3501 1.2 37.2541 1.424C37.1688 1.648 37.0835 1.84533 36.9981 2.016C36.9235 2.18667 36.8808 2.272 36.8701 2.272H29.1261L28.9021 3.152H36.3101C36.2888 3.248 36.2355 3.408 36.1501 3.632C36.0648 3.84533 35.9741 4.06933 35.8781 4.304C35.7821 4.528 35.6968 4.72533 35.6221 4.896C35.5475 5.06667 35.5048 5.152 35.4941 5.152H28.3581L28.1981 5.776L28.2621 6H35.8781C35.8995 6 35.8995 6.08533 35.8781 6.256C35.8675 6.42667 35.8461 6.624 35.8141 6.848C35.7821 7.072 35.7501 7.296 35.7181 7.52C35.6861 7.73333 35.6595 7.89333 35.6381 8H27.4301C27.2061 8 26.9928 7.94667 26.7901 7.84C26.5981 7.73333 26.4381 7.59467 26.3101 7.424C26.1821 7.24267 26.0915 7.04 26.0381 6.816C25.9848 6.592 25.9901 6.36267 26.0541 6.128L27.6061 0.272ZM38.653 0.272H40.669L45.389 5.28L46.717 0.272H48.701L46.653 8H44.605L39.981 2.992L38.653 8H36.605L38.653 0.272ZM49.6686 0.272H58.1006C58.2606 0.272 58.4206 0.32 58.5806 0.415999C58.7513 0.511999 58.8953 0.634666 59.0126 0.783999C59.1406 0.933333 59.2366 1.09867 59.3006 1.28C59.3646 1.45067 59.3753 1.62133 59.3326 1.792L58.1006 6.384C58.0473 6.59733 57.93 6.80533 57.7486 7.008C57.578 7.2 57.3806 7.37067 57.1566 7.52C56.9326 7.66933 56.698 7.78667 56.4526 7.872C56.2073 7.95733 55.9886 8 55.7966 8H47.6206L49.6686 0.272ZM50.1966 6H56.1486L57.1406 2.32H51.1886L50.1966 6ZM67.1643 6L67.3563 5.28L67.2283 5.152H61.0203C60.8283 5.152 60.6576 5.09867 60.5082 4.992C60.3589 4.87467 60.2309 4.736 60.1243 4.576C60.0176 4.40533 59.9376 4.224 59.8843 4.032C59.8416 3.84 59.8256 3.664 59.8363 3.504L60.0603 2.704C60.1349 2.416 60.2416 2.128 60.3803 1.84C60.5296 1.552 60.7056 1.296 60.9083 1.072C61.1216 0.837333 61.3616 0.645333 61.6283 0.496C61.9056 0.346666 62.2149 0.272 62.5563 0.272H70.7483L70.6843 0.512C70.6309 0.650666 70.5616 0.821333 70.4763 1.024C70.3909 1.216 70.3109 1.408 70.2363 1.6C70.1616 1.78133 70.0923 1.94133 70.0283 2.08C69.9749 2.208 69.9483 2.272 69.9483 2.272H62.3802L62.1883 2.384L61.9803 3.136H68.1083C68.3003 3.136 68.4923 3.184 68.6843 3.28C68.8763 3.376 69.0416 3.504 69.1803 3.664C69.3296 3.824 69.4363 4 69.5003 4.192C69.5749 4.384 69.5909 4.576 69.5483 4.768L69.1163 6.384C69.0629 6.56533 68.9563 6.752 68.7963 6.944C68.6469 7.136 68.4709 7.312 68.2683 7.472C68.0656 7.62133 67.8576 7.74933 67.6443 7.856C67.4309 7.952 67.2389 8 67.0683 8H58.9563C58.9776 7.904 59.0256 7.74933 59.1003 7.536C59.1856 7.312 59.2763 7.088 59.3723 6.864C59.4683 6.64 59.5536 6.44267 59.6283 6.272C59.7029 6.09067 59.7456 6 59.7563 6H67.1643Z" fill="#F0F0F0"/>
</svg>
