<svg width="129" height="8" viewBox="0 0 129 8" fill="none" xmlns="http://www.w3.org/2000/svg">
<path d="M2.528 0.272H4.544L3.024 6H9.264C9.05067 6.37333 8.8 6.736 8.512 7.088C8.224 7.44 7.89333 7.744 7.52 8H0.48L2.528 0.272ZM11.5124 0.272H21.5924C21.571 0.368 21.5177 0.528 21.4324 0.752C21.347 0.976 21.2564 1.2 21.1604 1.424C21.075 1.648 20.9897 1.84533 20.9044 2.016C20.8297 2.18667 20.787 2.272 20.7764 2.272H13.0324L12.8084 3.152H20.2164C20.195 3.248 20.1417 3.408 20.0564 3.632C19.971 3.84533 19.8804 4.06933 19.7844 4.304C19.6884 4.528 19.603 4.72533 19.5284 4.896C19.4537 5.06667 19.411 5.152 19.4004 5.152H12.2644L12.1044 5.776L12.1684 6H19.7844C19.8057 6 19.8057 6.08533 19.7844 6.256C19.7737 6.42667 19.7524 6.624 19.7204 6.848C19.6884 7.072 19.6564 7.296 19.6244 7.52C19.5924 7.73333 19.5657 7.89333 19.5444 8H11.3364C11.1124 8 10.899 7.94667 10.6964 7.84C10.5044 7.73333 10.3444 7.59467 10.2164 7.424C10.0884 7.24267 9.99771 7.04 9.94438 6.816C9.89104 6.592 9.89638 6.36267 9.96038 6.128L11.5124 0.272ZM20.2873 8L26.1593 1.536C26.2979 1.39733 26.4526 1.25333 26.6233 1.104C26.7939 0.954666 26.9699 0.821333 27.1513 0.704C27.3433 0.576 27.5353 0.474666 27.7273 0.4C27.9299 0.314666 28.1326 0.272 28.3353 0.272H32.9273L30.8793 8H28.8793L29.3913 6.064H24.4793L22.6553 8H20.2873ZM30.3993 2.304H27.9833C27.9513 2.304 27.8499 2.384 27.6793 2.544C27.5193 2.69333 27.3433 2.86933 27.1513 3.072C26.9699 3.264 26.7939 3.456 26.6233 3.648C26.4526 3.82933 26.3406 3.95733 26.2873 4.032H29.9353L30.3993 2.304ZM33.8874 0.272H42.3194C42.4794 0.272 42.6394 0.32 42.7994 0.415999C42.97 0.511999 43.114 0.634666 43.2314 0.783999C43.3594 0.933333 43.4554 1.09867 43.5194 1.28C43.5834 1.45067 43.594 1.62133 43.5514 1.792L42.3194 6.384C42.266 6.59733 42.1487 6.80533 41.9674 7.008C41.7967 7.2 41.5994 7.37067 41.3754 7.52C41.1514 7.66933 40.9167 7.78667 40.6714 7.872C40.426 7.95733 40.2074 8 40.0154 8H31.8394L33.8874 0.272ZM34.4154 6H40.3674L41.3594 2.32H35.4074L34.4154 6ZM44.903 0.272H54.983C54.9617 0.368 54.9083 0.528 54.823 0.752C54.7377 0.976 54.647 1.2 54.551 1.424C54.4657 1.648 54.3803 1.84533 54.295 2.016C54.2203 2.18667 54.1777 2.272 54.167 2.272H46.423L46.199 3.152H53.607C53.5857 3.248 53.5323 3.408 53.447 3.632C53.3617 3.84533 53.271 4.06933 53.175 4.304C53.079 4.528 52.9937 4.72533 52.919 4.896C52.8443 5.06667 52.8017 5.152 52.791 5.152H45.655L45.495 5.776L45.559 6H53.175C53.1963 6 53.1963 6.08533 53.175 6.256C53.1643 6.42667 53.143 6.624 53.111 6.848C53.079 7.072 53.047 7.296 53.015 7.52C52.983 7.73333 52.9563 7.89333 52.935 8H44.727C44.503 8 44.2897 7.94667 44.087 7.84C43.895 7.73333 43.735 7.59467 43.607 7.424C43.479 7.24267 43.3883 7.04 43.335 6.816C43.2817 6.592 43.287 6.36267 43.351 6.128L44.903 0.272ZM55.9499 0.272H64.1579C64.5312 0.272 64.8192 0.346666 65.0219 0.496C65.2245 0.645333 65.3632 0.837333 65.4379 1.072C65.5125 1.296 65.5392 1.552 65.5179 1.84C65.4965 2.128 65.4485 2.416 65.3739 2.704L65.1499 3.504C65.1072 3.65333 65.0165 3.824 64.8779 4.016C64.7392 4.208 64.5739 4.38933 64.3819 4.56C64.1899 4.72 63.9765 4.85867 63.7419 4.976C63.5179 5.09333 63.2992 5.152 63.0859 5.152H61.9339L63.9499 8H61.3099L59.3419 5.152H56.7019L55.9499 8H53.9019L55.9499 0.272ZM57.4699 2.272L57.2459 3.152H63.0059L63.2779 2.96L63.4379 2.384L63.2619 2.272H57.4699ZM76.1053 3.136H82.0893L82.2973 2.384L82.1213 2.272H76.3293L76.1053 3.136ZM83.0173 0.272C83.3906 0.272 83.6786 0.341333 83.8813 0.48C84.0839 0.618666 84.2226 0.8 84.2973 1.024C84.3826 1.248 84.4146 1.49867 84.3933 1.776C84.3719 2.05333 84.3239 2.32533 84.2493 2.592L84.0733 3.28C84.0626 3.30133 84.0306 3.35467 83.9773 3.44C83.9346 3.51467 83.8813 3.6 83.8173 3.696C83.7533 3.78133 83.6839 3.86667 83.6093 3.952C83.5346 4.03733 83.4653 4.096 83.4013 4.128L83.4333 4.176C83.4759 4.28267 83.5239 4.42133 83.5773 4.592C83.6306 4.76267 83.6359 4.90667 83.5933 5.024L83.2413 6.384C83.1879 6.56533 83.1079 6.752 83.0013 6.944C82.8946 7.136 82.7559 7.312 82.5853 7.472C82.4253 7.62133 82.2279 7.74933 81.9933 7.856C81.7586 7.952 81.4919 8 81.1933 8H72.7613L74.8093 0.272H83.0173ZM75.3373 6H81.1293L81.3533 5.888L81.5453 5.152H75.5613L75.3373 6ZM85.8249 0.272H94.2569C94.4169 0.272 94.5769 0.32 94.7369 0.415999C94.9075 0.511999 95.0515 0.634666 95.1689 0.783999C95.2969 0.933333 95.3929 1.09867 95.4569 1.28C95.5209 1.45067 95.5315 1.62133 95.4889 1.792L94.2569 6.384C94.2035 6.59733 94.0862 6.80533 93.9049 7.008C93.7342 7.2 93.5369 7.37067 93.3129 7.52C93.0889 7.66933 92.8542 7.78667 92.6089 7.872C92.3635 7.95733 92.1449 8 91.9529 8H85.6489C85.4355 8 85.2329 7.952 85.0409 7.856C84.8489 7.76 84.6835 7.63733 84.5449 7.488C84.4062 7.328 84.3049 7.14667 84.2409 6.944C84.1769 6.74133 84.1715 6.528 84.2249 6.304L85.8249 0.272ZM86.4009 5.824L86.5289 6H92.3049L93.2969 2.32H87.3449L86.4009 5.824ZM94.5685 8L100.441 1.536C100.579 1.39733 100.734 1.25333 100.905 1.104C101.075 0.954666 101.251 0.821333 101.433 0.704C101.625 0.576 101.817 0.474666 102.009 0.4C102.211 0.314666 102.414 0.272 102.617 0.272H107.209L105.161 8H103.161L103.673 6.064H98.7605L96.9365 8H94.5685ZM104.681 2.304H102.265C102.233 2.304 102.131 2.384 101.961 2.544C101.801 2.69333 101.625 2.86933 101.433 3.072C101.251 3.264 101.075 3.456 100.905 3.648C100.734 3.82933 100.622 3.95733 100.569 4.032H104.217L104.681 2.304ZM108.169 0.272H116.377C116.75 0.272 117.038 0.346666 117.241 0.496C117.443 0.645333 117.582 0.837333 117.657 1.072C117.731 1.296 117.758 1.552 117.737 1.84C117.715 2.128 117.667 2.416 117.593 2.704L117.369 3.504C117.326 3.65333 117.235 3.824 117.097 4.016C116.958 4.208 116.793 4.38933 116.601 4.56C116.409 4.72 116.195 4.85867 115.961 4.976C115.737 5.09333 115.518 5.152 115.305 5.152H114.153L116.169 8H113.529L111.561 5.152H108.921L108.169 8H106.121L108.169 0.272ZM109.689 2.272L109.465 3.152H115.225L115.497 2.96L115.657 2.384L115.481 2.272H109.689ZM119.184 0.272H127.616C127.776 0.272 127.936 0.32 128.096 0.415999C128.267 0.511999 128.411 0.634666 128.528 0.783999C128.656 0.933333 128.752 1.09867 128.816 1.28C128.88 1.45067 128.891 1.62133 128.848 1.792L127.616 6.384C127.563 6.59733 127.446 6.80533 127.264 7.008C127.094 7.2 126.896 7.37067 126.672 7.52C126.448 7.66933 126.214 7.78667 125.968 7.872C125.723 7.95733 125.504 8 125.312 8H117.136L119.184 0.272ZM119.712 6H125.664L126.656 2.32H120.704L119.712 6Z" fill="#F0F0F0"/>
</svg>
