<svg width="136" height="24" viewBox="0 0 136 24" fill="none" xmlns="http://www.w3.org/2000/svg">
<path d="M5.584 0.816H35.824C35.76 1.104 35.6 1.584 35.344 2.256C35.088 2.928 34.816 3.6 34.528 4.272C34.272 4.944 34.016 5.536 33.76 6.048C33.536 6.56 33.408 6.816 33.376 6.816H10.144L7.36 17.328L7.552 18H30.4C30.464 18 30.464 18.256 30.4 18.768C30.368 19.28 30.304 19.872 30.208 20.544C30.112 21.216 30.016 21.888 29.92 22.56C29.824 23.2 29.744 23.68 29.68 24H5.056C4.384 24 3.744 23.84 3.136 23.52C2.56 23.2 2.08 22.784 1.696 22.272C1.312 21.728 1.04 21.12 0.88 20.448C0.72 19.776 0.736 19.088 0.928 18.384L5.584 0.816ZM31.9086 24L49.5246 4.608C49.9406 4.192 50.4046 3.76 50.9166 3.312C51.4286 2.864 51.9566 2.464 52.5006 2.112C53.0766 1.728 53.6526 1.424 54.2286 1.2C54.8366 0.943999 55.4446 0.816 56.0526 0.816H69.8286L63.6846 24H57.6846L59.2206 18.192H44.4846L39.0126 24H31.9086ZM62.2446 6.912H54.9966C54.9006 6.912 54.5966 7.152 54.0846 7.632C53.6046 8.08 53.0766 8.608 52.5006 9.216C51.9566 9.792 51.4286 10.368 50.9166 10.944C50.4046 11.488 50.0686 11.872 49.9086 12.096H60.8526L62.2446 6.912ZM72.709 0.816H97.333C98.453 0.816 99.317 1.04 99.925 1.488C100.533 1.936 100.949 2.512 101.173 3.216C101.397 3.888 101.477 4.656 101.413 5.52C101.349 6.384 101.205 7.248 100.981 8.112L100.309 10.512C100.181 10.96 99.909 11.472 99.493 12.048C99.077 12.624 98.581 13.168 98.005 13.68C97.429 14.16 96.789 14.576 96.085 14.928C95.413 15.28 94.757 15.456 94.117 15.456H90.661L96.709 24H88.789L82.885 15.456H74.965L72.709 24H66.565L72.709 0.816ZM77.269 6.816L76.597 9.456H93.877L94.693 8.88L95.173 7.152L94.645 6.816H77.269ZM125.196 18L125.772 15.84L125.388 15.456H106.764C106.188 15.456 105.676 15.296 105.228 14.976C104.78 14.624 104.396 14.208 104.076 13.728C103.756 13.216 103.516 12.672 103.356 12.096C103.228 11.52 103.18 10.992 103.212 10.512L103.884 8.112C104.108 7.248 104.428 6.384 104.844 5.52C105.292 4.656 105.82 3.888 106.428 3.216C107.068 2.512 107.788 1.936 108.588 1.488C109.42 1.04 110.348 0.816 111.372 0.816H135.948L135.756 1.536C135.596 1.952 135.388 2.464 135.132 3.072C134.876 3.648 134.636 4.224 134.412 4.8C134.188 5.344 133.98 5.824 133.788 6.24C133.628 6.624 133.548 6.816 133.548 6.816H110.844L110.268 7.152L109.644 9.408H128.028C128.604 9.408 129.18 9.552 129.756 9.84C130.332 10.128 130.828 10.512 131.244 10.992C131.692 11.472 132.012 12 132.204 12.576C132.428 13.152 132.476 13.728 132.348 14.304L131.052 19.152C130.892 19.696 130.572 20.256 130.092 20.832C129.644 21.408 129.116 21.936 128.508 22.416C127.9 22.864 127.276 23.248 126.636 23.568C125.996 23.856 125.42 24 124.908 24H100.572C100.636 23.712 100.78 23.248 101.004 22.608C101.26 21.936 101.532 21.264 101.82 20.592C102.108 19.92 102.364 19.328 102.588 18.816C102.812 18.272 102.94 18 102.972 18H125.196Z" fill="#F0F0F0"/>
</svg>
